<svg xmlns="http://www.w3.org/2000/svg" viewBox="0 0 115 28" fill="none">
<g clip-path="url(#clip0_1102_1997)">
<path d="M5.59189 22.4265V11.2796H0V28H16.7425V22.4265H5.59189Z" fill="#1D9ADD"/>
<path d="M27.8765 0.11615H0V8.47636H5.57529V5.72279H22.3012V22.4265H19.5301V28H27.8765V0.11615Z" fill="#003764"/>
<path d="M33.5015 0.0331421H42.1133V20.8009H54.4752V27.9668H33.5015V0.0331421Z" fill="#003764"/>
<path d="M59.9676 0H81.5883V7.16588H68.5795V10.6493H79.747V17.301H68.5795V27.9503H59.951V0H59.9676Z" fill="#003764"/>
<path d="M94.3319 13.1375L85.1722 0.11615H95.2279L99.4427 7.68014L103.574 0.11615H113.099L104.172 13.2205L114.111 27.9669H103.773L99.0278 19.6565L94.0998 27.9669H84.2762L94.3319 13.1541V13.1375Z" fill="#1D9ADD"/>
</g>
<defs>
<clipPath id="clip0_1102_1997">
<rect width="114.211" height="28" fill="white"/>
</clipPath>
</defs>
</svg>