<svg xmlns="http://www.w3.org/2000/svg" id="Layer_1" data-name="Layer 1" viewBox="0 0 190 80"><defs><style>.cls-1{fill:#fff;}</style></defs><polygon class="cls-1" points="15.32 54.69 15.32 37.42 6.67 37.42 6.67 63.33 32.58 63.33 32.58 54.69 15.32 54.69"/><polygon class="cls-1" points="49.84 20.14 6.67 20.14 6.67 33.1 15.3 33.1 15.3 28.82 41.21 28.82 41.21 54.69 36.9 54.69 36.9 63.33 49.84 63.33 49.84 20.14"/><path class="cls-1" d="M58.54,20H71.87V52.17H91V63.26H58.54Z"/><path class="cls-1" d="M99.52,20H133v11.1H112.86v5.39h17.29V46.76H112.86v16.5H99.52Z"/><path class="cls-1" d="M152.72,40.31,138.53,20.14h15.58l6.52,11.71L167,20.14h14.73L167.94,40.43l15.39,22.83h-16L160,50.39l-7.61,12.87H137.14Z"/></svg>