<?xml version="1.0" encoding="UTF-8"?>
<svg version="1.1" viewBox="0 0 460 460" xmlns="http://www.w3.org/2000/svg">
<path transform="translate(320,37)" d="m0 0c0.96825 0.46479 0.96825 0.46479 1.9561 0.93896 8.7098 4.1878 17.039 8.6121 25.044 14.061 0.82758 0.55301 1.6552 1.106 2.5078 1.6758 28.678 19.553 52.328 45.608 68.492 76.324 0.60715 1.1382 1.2143 2.2765 1.8398 3.4492 6.8933 13.181 12.375 27.153 16.16 41.551 0.31582 1.0957 0.63164 2.1914 0.95703 3.3203 14.486 53.102 4.4509 111.94-22.444 159.3-2.7052 4.5512-5.5576 8.9897-8.5132 13.382l-2 3h-2c-0.21914 0.69094-0.43828 1.3819-0.66406 2.0938-1.7002 3.6987-4.035 6.3712-6.7109 9.4062-0.96674 1.1141-1.9329 2.2286-2.8984 3.3438-0.46374 0.5298-0.92748 1.0596-1.4053 1.6055-1.2315 1.4454-2.393 2.9497-3.5479 4.457-0.58523 0.69094-1.1705 1.3819-1.7734 2.0938h-2l-0.75 1.875c-1.4563 2.4757-2.6281 3.0763-5.25 4.125v2c-4.3935 4.6723-9.8239 8.4981-14.875 12.438-0.5713 0.44924-1.1426 0.89848-1.7312 1.3613-4.1572 3.2012-4.1572 3.2012-6.3938 3.2012v2c-2.2383 1.7344-2.2383 1.7344-5.3125 3.75-0.98613 0.65484-1.9723 1.3097-2.9883 1.9844-17.141 10.77-36.164 19.884-55.699 25.266-0.80099 0.22381-1.602 0.44763-2.4272 0.67822-44.589 12.112-93.798 9.8892-136.57-7.6782-0.72478-0.29697-1.4496-0.59394-2.1963-0.8999-33.429-13.852-65.021-36.966-86.804-66.1-0.66645-0.8843-1.3329-1.7686-2.0195-2.6797-11.573-15.623-21.251-32.076-27.98-50.32-0.29391-0.75668-0.58781-1.5134-0.89062-2.293-0.73363-1.8926-1.4255-3.7959-2.1094-5.707-0.44086-1.1737-0.44086-1.1737-0.89062-2.3711-17.982-50.306-13.468-109.7 8.9531-157.75 2.5894-5.4031 5.3895-10.616 8.582-15.691 1.3437-2.1646 2.5394-4.3696 3.7305-6.6211 2.5815-4.7244 5.7319-8.9723 8.9531-13.277 1.6809-2.1638 1.6809-2.1638 2.6719-4.2852h2c0.26684-0.58523 0.53367-1.1705 0.80859-1.7734 1.2167-2.2739 2.5319-3.9382 4.2539-5.8516 0.62777-0.69867 1.2555-1.3973 1.9023-2.1172 0.6716-0.74508 1.3432-1.4902 2.0352-2.2578 0.66129-0.7657 1.3226-1.5314 2.0039-2.3203 7.0238-8.0457 15.04-16.742 23.996-22.68h2v-2c1.9571-1.3955 3.9665-2.7184 6-4 0.94359-0.6368 1.8872-1.2736 2.8594-1.9297 3.0347-2.0423 6.0838-4.0612 9.1406-6.0703 0.74637-0.495 1.4927-0.99 2.2617-1.5 57.909-36.596 138.34-40.375 199.74-10.5z" fill="#FDFDFD"/>
<path transform="translate(320,37)" d="m0 0c0.96825 0.46479 0.96825 0.46479 1.9561 0.93896 8.7098 4.1878 17.039 8.6121 25.044 14.061 0.82758 0.55301 1.6552 1.106 2.5078 1.6758 28.678 19.553 52.328 45.608 68.492 76.324 0.60715 1.1382 1.2143 2.2765 1.8398 3.4492 6.8933 13.181 12.375 27.153 16.16 41.551 0.31582 1.0957 0.63164 2.1914 0.95703 3.3203 14.486 53.102 4.4509 111.94-22.444 159.3-2.7052 4.5512-5.5576 8.9897-8.5132 13.382l-2 3h-2c-0.21914 0.69094-0.43828 1.3819-0.66406 2.0938-1.7002 3.6987-4.035 6.3712-6.7109 9.4062-0.96674 1.1141-1.9329 2.2286-2.8984 3.3438-0.46374 0.5298-0.92748 1.0596-1.4053 1.6055-1.2315 1.4454-2.393 2.9497-3.5479 4.457-0.58523 0.69094-1.1705 1.3819-1.7734 2.0938h-2l-0.75 1.875c-1.4563 2.4757-2.6281 3.0763-5.25 4.125v2c-4.3935 4.6723-9.8239 8.4981-14.875 12.438-0.5713 0.44924-1.1426 0.89848-1.7312 1.3613-4.1572 3.2012-4.1572 3.2012-6.3938 3.2012v2c-2.2383 1.7344-2.2383 1.7344-5.3125 3.75-0.98613 0.65484-1.9723 1.3097-2.9883 1.9844-17.141 10.77-36.164 19.884-55.699 25.266-0.80099 0.22381-1.602 0.44763-2.4272 0.67822-44.589 12.112-93.798 9.8892-136.57-7.6782-0.72478-0.29697-1.4496-0.59394-2.1963-0.8999-33.429-13.852-65.021-36.966-86.804-66.1-0.66645-0.8843-1.3329-1.7686-2.0195-2.6797-11.573-15.623-21.251-32.076-27.98-50.32-0.29391-0.75668-0.58781-1.5134-0.89062-2.293-0.73363-1.8926-1.4255-3.7959-2.1094-5.707-0.44086-1.1737-0.44086-1.1737-0.89062-2.3711-17.982-50.306-13.468-109.7 8.9531-157.75 2.5894-5.4031 5.3895-10.616 8.582-15.691 1.3437-2.1646 2.5394-4.3696 3.7305-6.6211 2.5815-4.7244 5.7319-8.9723 8.9531-13.277 1.6809-2.1638 1.6809-2.1638 2.6719-4.2852h2c0.26684-0.58523 0.53367-1.1705 0.80859-1.7734 1.2167-2.2739 2.5319-3.9382 4.2539-5.8516 0.62777-0.69867 1.2555-1.3973 1.9023-2.1172 0.6716-0.74508 1.3432-1.4902 2.0352-2.2578 0.66129-0.7657 1.3226-1.5314 2.0039-2.3203 7.0238-8.0457 15.04-16.742 23.996-22.68h2v-2c1.9571-1.3955 3.9665-2.7184 6-4 0.94359-0.6368 1.8872-1.2736 2.8594-1.9297 3.0347-2.0423 6.0838-4.0612 9.1406-6.0703 0.74637-0.495 1.4927-0.99 2.2617-1.5 57.909-36.596 138.34-40.375 199.74-10.5zm-238 52-2.8242 2.8242c-7.622 8.0148-13.957 17.057-20.176 26.176-0.48646 0.71011-0.97292 1.4202-1.4741 2.1519-14.919 22.118-23.44 47.399-28.838 73.348-0.15976 0.76425-0.31953 1.5285-0.48413 2.3159-9.1858 47.376 1.9852 100.79 27.547 141.5 1.0686 1.5726 2.151 3.136 3.25 4.6875 0.52594 0.78375 1.0519 1.5675 1.5938 2.375 1.7533 2.5804 3.5655 5.1062 5.4062 7.625 0.74379 1.0248 1.4876 2.0496 2.2539 3.1055 10.59 14.209 23.511 27.321 37.746 37.895 0.8018 0.59555 1.6036 1.1911 2.4297 1.8047 10.976 7.8903 22.506 14.39 34.651 20.256 1.3057 0.63908 2.6048 1.292 3.8975 1.957 4.5738 2.351 9.165 4.2954 14.022 5.9824 1.1067 0.38454 1.1067 0.38454 2.2358 0.77686 6.7637 2.2998 13.565 4.2263 20.55 5.7378 1.5123 0.33147 3.0211 0.67923 4.5264 1.041 13.617 3.2287 26.948 3.7992 40.875 3.7568 0.84225-0.0024573 1.6845-0.0049146 2.5523-0.0074463 17.463 0.062465 17.463 0.062465 34.635-2.6801 4.424-1.0968 8.839-2.0655 13.312-2.9375 5.6893-1.2105 11.17-2.8048 16.688-4.625 0.73694-0.24081 1.4739-0.48163 2.2332-0.72974 4.3096-1.4631 8.3286-3.2048 12.369-5.2954 2.0947-1.0744 4.2119-2.0803 6.3467-3.0725 0.71865-0.33451 1.4373-0.66902 2.1777-1.0137 1.4682-0.68095 2.9369-1.3606 4.4062-2.0391 16.198-7.5511 30.86-18.881 43.951-30.959 1.734-1.5822 3.4876-3.0626 5.3281-4.5156 3.6709-3.1815 6.6817-6.7332 9.8125-10.438 0.86109-0.98484 1.7222-1.9697 2.6094-2.9844 6.0961-7.0096 11.394-14.17 16.391-22.016 0.67289-0.99773 1.3458-1.9955 2.0391-3.0234 4.6363-7.0376 8.3498-14.555 11.75-22.254 0.78031-1.7544 1.5859-3.498 2.4219-5.2266 7.1588-14.933 10.863-30.234 13.404-46.535 0.3855-1.9609 0.3855-1.9609 1.3855-3.9609 1.4374-10.161 1.2804-20.57 1.3125-30.812 0.0049246-1.2885 0.0049246-1.2885 0.0099487-2.6031 0.017105-13.863-0.99496-27.077-4.3224-40.584-0.165-0.68651-0.33-1.373-0.5-2.0803-7.1218-29.134-19.287-56.668-38.5-79.92-0.77602-0.96035-1.552-1.9207-2.3516-2.9102-9.9485-12.158-20.93-23.805-33.648-33.09-0.74895-0.5543-1.4979-1.1086-2.2695-1.6797-2.5424-1.8299-5.1241-3.5827-7.7305-5.3203-0.5377-0.36319-1.0754-0.72639-1.6294-1.1006-78.286-52.482-184.98-43.142-261.37 29.101z" fill="#0E0E0E"/>
<path transform="translate(235,310)" d="m0 0c12.107 7.8295 20.663 15.321 24.75 29.625 0.59982 5.6983 0.19122 9.8516-1.75 15.25-1.8903 5.4-2.8139 9.4274-2 15.125 2 2.3333 2 2.3333 5 3 3.9092 0 5.6162-0.71218 8.75-3.0625 2.8231-3.6857 3.4051-6.4058 4.25-10.938 2 2 2 2 2.3125 5.875-0.36289 13.299-5.9044 24.831-15.312 34.125-9.1325 8.5236-20.057 11.739-32.328 11.521-12.268-0.57231-23.228-4.5089-31.668-13.693-1.7768-2.2162-3.4043-4.4817-5.0039-6.8281-0.48469-0.6484-0.96938-1.2968-1.4688-1.9648-5.8919-8.3754-6.4289-19.076-5.5312-29.035 1.2375-5.6885 4.3253-8.8212 9-12 2.875-0.8125 2.875-0.8125 5-1l-1 3.0625c-1.7643 6.2633-1.3142 11.847 1 17.938 3.5926 1.1975 6.2272 1.3309 10 1 2.6031-1.353 2.6031-1.353 4-4 0.67205-4.9564 0.22873-7.871-2-12.312-2.9192-6.0678-3.0592-11.937-1.2344-18.398 2.2709-6.0016 4.7838-11.655 10.234-15.289 0.10957 1.195 0.21914 2.3899 0.33203 3.6211 1.123 13.839 1.123 13.839 6.668 26.379 2.8716 0.6679 2.8716 0.6679 6 0 4.3169-3.313 6.3439-6.8572 8-12 1.0929-9.0556-2.5931-17.728-6-26z" fill="#020202"/>
<path transform="translate(165,158)" d="m0 0c2.263 1.6143 4.4111 3.249 6.5625 5 0.62205 0.49838 1.2441 0.99677 1.885 1.5103 1.856 1.4903 3.7045 2.9895 5.5525 4.4897 0.93586 0.75023 1.8717 1.5005 2.8359 2.2734 5.9937 4.8418 11.812 9.8716 17.621 14.931 5.4227 4.7145 10.962 9.2693 16.543 13.795 8.8108 7.1946 17.564 14.444 26.176 21.875 4.0641 3.4982 8.2048 6.8822 12.41 10.21 7.316 5.8007 14.47 11.791 21.586 17.834 4.2154 3.5747 8.4774 7.0879 12.761 10.58 19.761 16.111 19.761 16.111 29.337 24.505 2.7657 2.4035 5.5458 4.574 8.5886 6.6199 3.1406 2.375 3.1406 2.375 3.7656 5.8125-0.80502 4.5886-1.5263 8.0134-5.4297 10.895-5.1646 2.9136-5.1646 2.9136-8.5391 2.1094-3.5204-1.9103-6.3034-4.3453-9.2812-7.0039-1.2504-1.0948-2.5017-2.1885-3.7539-3.2812-0.61504-0.53883-1.2301-1.0777-1.8638-1.6328-2.3991-2.0798-4.8534-4.0867-7.3198-6.0859-4.0446-3.2833-8.033-6.624-12-10-3.7683-3.2049-7.56-6.3644-11.438-9.4375-4.4509-3.5276-8.7832-7.1802-13.109-10.859-5.2399-4.4511-10.559-8.8014-15.891-13.141-2.8638-2.3509-5.7273-4.7022-8.5898-7.0547-1.5377-1.2411-3.1114-2.4396-4.7266-3.5781-0.83338-0.67676-0.83338-0.67676-1.6836-1.3672v-2c-0.7193-0.2359-1.4386-0.4718-2.1797-0.71484-3.2954-1.5016-5.3272-3.3507-7.9453-5.8477-6.6028-6.1578-13.404-12.069-20.812-17.25-2.6932-1.9237-4.7364-3.8614-7.0625-6.1875-1.5885-1.3315-3.1943-2.6424-4.8125-3.9375-4.6451-3.7645-9.1829-7.6313-13.688-11.562-5.4282-4.7351-10.921-9.3623-16.523-13.891-1.9766-1.6094-1.9766-1.6094-2.9766-2.6094 0.28327-5.6653 0.7884-8.9054 5-13 3.4366-2.5775 4.9471-3.4078 9-2z" fill="#020202"/>
<path transform="translate(369,276)" d="m0 0c6.2305 4.4504 11.972 9.3691 17.719 14.417 3.0179 2.6461 6.0114 5.2466 9.281 7.5833-1.5187 3.3974-3.5028 6.0162-5.875 8.875-0.8018 0.9668-1.6036 1.9336-2.4297 2.9297-3.3828 4.0258-6.8138 8.0102-10.245 11.995-4.5777 5.3245-9.0305 10.744-13.45 16.2-5.4137 6.6829-10.918 13.272-16.538 19.781-3.9804 4.6215-7.8279 9.3329-11.622 14.109-1.8398 2.1094-1.8398 2.1094-4.8398 4.1094-0.64066-0.59168-1.2813-1.1834-1.9414-1.793-5.8543-5.3661-5.8543-5.3661-12.184-10.145l-2.875-2.0625v-2l-1.6875-0.75c-2.7122-1.4661-4.9484-3.2799-7.3125-5.25 1.4499-4.7254 4.2549-7.7217 7.625-11.188 4.3241-4.561 8.3832-9.1991 12.254-14.156 2.6088-3.267 5.3267-6.4295 8.0586-9.5938 5.1224-5.9406 10.125-11.967 15.062-18.062 6.8549-8.4619 13.887-16.755 21-25z" fill="#020202"/>
<path transform="translate(207,224)" d="m0 0c3.9414 1.6675 6.7893 4.2271 10 7-3.5883 3.7356-7.3844 6.9769-11.5 10.125-9.7896 7.5896-19.321 15.555-28.5 23.875-0.55559 0.45246-1.1112 0.90492-1.6836 1.3711-1.8118 2.2419-1.6841 3.8356-1.7539 6.6914-0.56838 7.9679-2.3445 14.373-8.5 19.75-1.3424 1.0774-2.6957 2.1413-4.0625 3.1875-4.3457 3.59-5.5205 5.9937-6.4844 11.34-1.7187 8.8668-4.0637 19.395-11.508 25.219-5.1091 3.3031-8.8999 4.4525-15.008 4.5039-7.9514 0.57924-11.99 4.0375-18 8.9375-2.5435 1.9141-5.1358 3.7466-7.75 5.5625-0.92112 0.6805-0.92112 0.6805-1.8608 1.3748-3.421 2.3691-4.8587 3.0825-9.1665 2.9221-4.2215-1.1257-7.2315-2.2075-9.5352-6.0469-0.22688-0.59812-0.45375-1.1962-0.6875-1.8125 1.4375-1.5625 1.4375-1.5625 4-3 3.0538 0.031537 5.9965 0.46733 9 1 0.039961-1.0609 0.079922-2.1218 0.12109-3.2148 0.93555-4.0291 1.779-5.0791 5.1812-7.2971 0.87133-0.52002 0.87133-0.52002 1.7603-1.0505 3.8788-2.4435 7.463-4.851 10.812-8 4.6361-3.6455 10.107-2.5704 15.672-2.332 3.3794-0.10322 4.7509-0.2724 7.3281-2.3555 2.8541-3.6935 3.2048-6.7103 3.5547-11.277 2.9844-36.308 2.9844-36.308 15.57-48.473 5.1112-4.1068 10.511-7.8241 15.904-11.547 2.5627-1.7764 5.0826-3.6068 7.5957-5.4526 4.9326-3.5901 9.8707-7.1726 14.812-10.75 1.1486-0.83338 1.1486-0.83338 2.3203-1.6836 4.0694-2.9434 8.1658-5.8145 12.367-8.5664z" fill="#050505"/>
<path transform="translate(101,106)" d="m0 0c2.8125 1.5 2.8125 1.5 5 4 0.68643 0.75217 0.68643 0.75217 1.3867 1.5195 1.9129 2.126 3.7593 4.3028 5.6133 6.4805 1.5728 1.8233 3.1492 3.6436 4.7263 5.4631 1.1439 1.3198 2.2866 2.6406 3.4282 3.9624 3.0496 3.5265 6.1376 7.0077 9.283 10.449 9.1719 10.321 9.1719 10.321 9.9102 15.621-0.42993 3.0965-1.3856 4.4536-3.4102 6.8164-0.56848 0.69738-1.137 1.3948-1.7227 2.1133-3.2581 2.3157-5.2712 2.0263-9.2148 1.5742-3.1-0.88074-6.0315-2.0638-9-3.3125-0.8565-0.35175-1.713-0.70351-2.5955-1.0659-12.725-5.3152-25.184-11.315-37.401-17.708-0.88744-0.46197-1.7749-0.92394-2.6892-1.3999-2.4704-1.616-3.82-2.9781-5.3147-5.5142-0.17195-8.9412 6.8091-14.908 12.395-21.172 1.357-1.5452 2.6459-3.1498 3.918-4.7656 3.8467-4.7016 10.097-3.581 15.688-3.0625z" fill="#030303"/>
<path transform="translate(188.81 47.688)" d="m0 0c7.917 4.7502 9.8773 16.623 12.152 24.832 0.87092 2.9283 1.8506 5.67 3.0352 8.4805 3.4003 8.1635 6.816 17.056 6 26-2.5532 3.5585-6.7574 4.911-10.75 6.375-5.3041 0.34863-8.3732-3.4058-12.187-6.6387-4.7487-4.1892-9.2493-8.6251-13.707-13.12-1.5454-1.5562-3.1013-3.1013-4.6584-4.6458-16.541-16.514-16.541-16.514-18.01-22.783 0.34349-3.5036 1.1061-4.4712 3.6033-6.825 3.521-2.8068 7.4761-4.9203 11.397-7.1125 0.86689-0.49371 1.7338-0.98742 2.627-1.4961 7.7344-4.3938 11.701-5.2169 20.498-3.0664z" fill="#020202"/>
<path transform="translate(229.47 36.65)" d="m0 0c1.5112-0.016525 3.0224-0.04377 4.5332-0.082031 2.1808-0.054949 4.3597-0.07667 6.541-0.091309 1.9621-0.029729 1.9621-0.029729 3.9639-0.060059 4.3496 0.72738 5.8027 2.1598 8.4893 5.5835 0.41016 2.5234 0.41016 2.5234 0.0625 5.375-0.13664 1.137-0.27328 2.2739-0.41406 3.4453-0.2108 1.394-0.42754 2.7872-0.64844 4.1797-0.13116 0.85046-0.26232 1.7009-0.39746 2.5771-1.577 10.034-3.3901 20.022-5.665 29.923-0.14993 0.6629-0.29987 1.3258-0.45435 2.0088-1.2446 5.1812-2.5537 10.484-6.323 14.405-2.7138 1.3643-4.6931 1.4857-7.7227 1.4609-0.95004 0.0077344-1.9001 0.015469-2.8789 0.023438-3.0335-0.47239-3.6244-1.094-5.5586-3.3984-0.93555-1.8784-0.93555-1.8784-1.7188-3.9922-0.29101-0.78125-0.58201-1.5625-0.88184-2.3674-0.29681-0.83008-0.59361-1.6602-0.89941-2.5154-0.3097-0.85263-0.61939-1.7053-0.93848-2.5837-2.069-5.8236-3.6954-11.625-4.9482-17.682-0.77157-3.5974-1.836-7.0684-2.918-10.582-3.5607-11.662-3.5607-11.662-2.6953-16.277 6.5799-9.0809 10.675-9.2636 21.473-9.3501z" fill="#020202"/>
<path transform="translate(400,150)" d="m0 0c4.2564 1.6865 6.5638 3.1567 9 7 1.6401 4.5817 2.8108 9.2832 4 14 0.39832 1.5778 0.39832 1.5778 0.80469 3.1875 1.5298 6.95 1.5298 6.95 0.0078125 10.875-7.2763 7.7781-23.124 6.6301-33.156 7.0312-5.8436 0.17191-11.686 0.21296-17.532 0.21881-0.82208 0.0034039-1.6442 0.0068079-2.4911 0.010315-2.3548 0.0055913-4.7088-0.0047898-7.0635-0.022034-1.0594 0.0011707-1.0594 0.0011707-2.1401 0.0023651-3.6148-0.051692-6.4101-0.21427-9.4302-2.3031-1.96-3.234-2.0869-5.9978-2.0469-9.6836 0.010151-1.2132 0.010151-1.2132 0.020508-2.4509 0.013052-0.92341 0.013052-0.92341 0.026367-1.8655 14.953-8.7064 29.942-16.965 45.766-23.992 2.2348-0.97018 2.2348-0.97018 4.2891-2.1523 3.2939-1.4485 6.5587-0.65155 9.9453 0.14453z" fill="#020202"/>
<path transform="translate(295,51.25)" d="m0 0c0.67289 0.38285 1.3458 0.7657 2.0391 1.1602 12.182 7.0316 12.182 7.0316 13.961 10.59 0.41171 3.6698 0.40517 5.4138-1.7227 8.4922-0.77215 0.78633-1.5443 1.5727-2.3398 2.3828-2.7956 2.896-5.5367 5.7957-8.1602 8.8477-4.1858 4.8128-8.6453 9.3292-13.152 13.84-0.79922 0.81146-1.5984 1.6229-2.4219 2.459-13.109 13.14-13.109 13.14-19.203 14.791-4.6308-1.2542-8.1876-3.9659-12-6.8125 0.27625-10.447 3.7922-20.242 7.4805-29.922 1.0787-2.8394 2.0616-5.6921 2.9844-8.5859 0.24299-0.75926 0.48598-1.5185 0.73633-2.3008 0.49279-1.5502 0.97973-3.1024 1.4609-4.6562 3.4912-10.815 3.4912-10.815 8.4512-13.812 0.72574-0.21785 1.4515-0.4357 2.1992-0.66016 0.71801-0.2359 1.436-0.4718 2.1758-0.71484 6.8642-0.9501 11.81 1.5273 17.512 4.9023z" fill="#020202"/>
<path transform="translate(373,106)" d="m0 0c2.6875 1.875 2.6875 1.875 5 5 1.4708 1.6118 2.9509 3.2152 4.4375 4.8125 1.5283 1.7226 3.0495 3.4515 4.5625 5.1875 0.63164 0.7193 1.2633 1.4386 1.9141 2.1797 2.71 3.3009 3.9896 5.2951 4.7734 9.5703-0.89778 4.2441-2.1558 4.7852-5.6875 7.25-2.8448 1.6849-5.7531 3.2276-8.6875 4.75-1.2526 0.65307-1.2526 0.65307-2.5305 1.3193-11.231 5.7874-22.755 10.861-34.532 15.431-0.64348 0.25556-1.287 0.51111-1.95 0.77441-3.8896 1.4623-7.1596 2.3452-11.3 1.7256-2.1523-1.793-2.1523-1.793-3.9375-4.1875-0.60715-0.7773-1.2143-1.5546-1.8398-2.3555-1.2227-2.457-1.2227-2.457-1.2109-4.8203 1.3565-3.6191 3.4596-6.5546 5.7383-9.6367 0.43055-0.60328 0.86109-1.2066 1.3047-1.8281 2.7121-3.7352 5.6421-6.9338 8.9453-10.172 2.1861-2.4237 4.3116-4.8985 6.4375-7.375 0.54721-0.63422 1.0944-1.2684 1.6582-1.9219 0.54463-0.63164 1.0893-1.2633 1.6504-1.9141 0.53996-0.62616 1.0799-1.2523 1.6362-1.8975 1.0833-1.2667 2.1578-2.5409 3.2236-3.8223 6.2217-7.4394 10.421-9.4744 20.394-8.0693z" fill="#020202"/>
<path transform="translate(133.19 73.75)" d="m0 0c0.9423-0.025781 1.8846-0.051562 2.8555-0.078125 5.1407 0.57043 8.0544 2.2126 11.309 6.2344 0.77276 1.1883 1.5298 2.387 2.2734 3.5938 0.62516 0.97719 0.62516 0.97719 1.2629 1.9741 0.9029 1.4157 1.7992 2.8357 2.6897 4.2593 1.4773 2.3541 2.9804 4.6901 4.4888 7.0244 16.056 24.95 16.056 24.95 15.793 29.887-1.481 4.0594-4.2028 6.1886-7.8594 8.3555-8.9517 2.0064-16.377-4.0899-23.661-8.6748-10.678-6.7936-21.194-13.753-31.339-21.325-0.60312-0.44859-1.2062-0.89719-1.8276-1.3594-2.5891-2.19-3.1563-3.5017-3.5474-6.8906 3.4604-9.4376 13.768-15.664 21.375-21.75 1.7056-1.7056 3.8599-1.2123 6.1875-1.25z" fill="#020202"/>
<path transform="translate(81.812 154.44)" d="m0 0c0.90927 0.44448 1.8185 0.88897 2.7554 1.3469 2.8197 1.3879 5.6278 2.7969 8.4321 4.2156 0.8735 0.4415 1.747 0.88301 2.647 1.3379 9.4097 4.7883 18.607 9.7267 27.353 15.662-0.53821 5.2744-1.5734 9.3334-4 14-3.4286 1.1429-6.0798 1.1295-9.6953 1.1328-0.66036 0.0014099-1.3207 0.0028198-2.0011 0.0042725-2.1429 0.0021345-4.2857-0.0041529-6.4286-0.012085-0.72741-0.0015509-1.4548-0.0031018-2.2043-0.0046997-10.583-0.02663-21.127-0.11667-31.671-1.1203-1.9529-0.18369-1.9529-0.18369-3.9453-0.37109-11.597-1.3455-11.597-1.3455-15.055-5.6289-1.3352-7.5573 0.58556-14.789 2.9375-21.938 0.25846-0.91846 0.51691-1.8369 0.7832-2.7832 1.1914-3.6761 2.165-6.4067 5.2603-8.8306 9.129-4.5792 16.359-1.2425 24.832 2.9888z" fill="#020202"/>
<path transform="translate(334,74)" d="m0 0c3.8316 2.5338 6.8268 5.7005 10 9 1.445 1.2653 2.9024 2.5169 4.375 3.75 7.19 6.3167 7.19 6.3167 8.1875 10.75-2.4032 10.681-22.902 19.743-31.646 25.292-3.9306 2.4786-7.8899 4.8893-11.917 7.2085-0.94746 0.55816-1.8949 1.1163-2.8711 1.6914-1.456 0.83338-1.456 0.83338-2.9414 1.6836-0.8727 0.50273-1.7454 1.0055-2.6445 1.5234-2.8244 1.2235-4.5015 1.5311-7.543 1.1016-1.9492-1.207-1.9492-1.207-3.6875-2.8125-0.87205-0.78311-0.87205-0.78311-1.7617-1.582-1.5508-1.6055-1.5508-1.6055-3.5508-4.6055 0.94434-7.5083 6.3612-14.731 10.547-20.809 1.3659-2.0598 2.545-4.1348 3.7031-6.3164 2.3692-4.3538 5.0237-8.4894 7.75-12.625 0.4154-0.63825 0.8308-1.2765 1.2588-1.9341 5.8722-8.8129 11.716-13.559 22.741-11.316z" fill="#020202"/>
<path transform="translate(57.625,200.75)" d="m0 0c0.64824 0.068562 1.2965 0.13712 1.9644 0.20776 2.4807 0.29095 4.9418 0.66305 7.4106 1.0422 1.1357 0.16645 2.2713 0.3329 3.4414 0.50439 3.8983 0.58001 7.792 1.1849 11.684 1.8081 1.8749 0.30019 1.8749 0.30019 3.7876 0.60645 22.895 3.8884 22.895 3.8884 26.087 7.0811 0.2043 2.1188 0.31394 4.2472 0.375 6.375 0.048984 1.1627 0.097969 2.3255 0.14844 3.5234-0.52344 3.1016-0.52344 3.1016-2.5625 4.8555-3.5157 1.4795-7.0607 2.7156-10.711 3.8086-0.71446 0.21833-1.4289 0.43667-2.165 0.66162-4.2635 1.2845-8.519 2.4333-12.886 3.3149-2.7345 0.57313-5.4301 1.268-8.1367 1.9609-2.0202 0.5025-4.041 1.0026-6.0625 1.5-0.83531 0.21012-1.6706 0.42023-2.5312 0.63672-6.6789 1.5288-13.649 2.2528-20.469 1.3633-2.3478-1.5602-2.8866-2.5324-3.5503-5.2688-0.79882-4.8515-0.88523-9.6984-1.0122-14.606-0.06252-1.0635-0.12504-2.127-0.18945-3.2227-0.15543-7.5831-0.15543-7.5831 2.3398-11.211 4.109-3.9077 7.2556-5.606 13.037-4.9414z" fill="#020202"/>
<path transform="translate(412,205)" d="m0 0v2l1.9375 0.875c2.0625 1.125 2.0625 1.125 3.0625 3.125 0.32452 4.2643 0.32452 8.5374 0.375 12.812 0.056074 1.7837 0.056074 1.7837 0.11328 3.6035 0.088078 8.7148 0.088078 8.7148-2.6875 12.9-5.424 3.2604-10.843 1.6124-16.775 0.22021-4.5356-1.1489-9.018-2.4641-13.501-3.7998-2.6571-0.7757-5.324-1.5046-7.9966-2.2251-19.475-5.2932-19.475-5.2932-25.527-9.5117-1.1764-2.3527-1.1336-3.8208-1.125-6.4375-0.0025781-0.78246-0.0051562-1.5649-0.0078125-2.3711 0.13281-2.1914 0.13281-2.1914 1.1328-5.1914 6.6575-1.382 13.323-2.7135 20-4 0.82162-0.15968 1.6432-0.31937 2.4897-0.48389 30.099-5.7216 30.099-5.7216 38.51-1.5161z" fill="#030303"/>
<path transform="translate(345.45 272.64)" d="m0 0c0.94786 0.062842 1.8957 0.12568 2.8723 0.19043 1.028 0.058008 2.0561 0.11602 3.1152 0.17578 1.0719 0.081211 2.1437 0.16242 3.248 0.24609 1.0835 0.065742 2.1669 0.13148 3.2832 0.19922 2.6782 0.16517 5.3536 0.34947 8.0293 0.55078-1.5034 4.0061-3.1063 6.5071-6.0625 9.625-3.1849 3.438-6.2459 6.914-9.1875 10.562-3.6764 4.5456-7.4681 8.9721-11.312 13.375-4.2606 4.8846-8.4063 9.8253-12.418 14.918-2.8829 3.5967-5.8705 7.1014-8.8657 10.605-2.2981 2.6945-4.5609 5.4054-6.7515 8.1882-0.79277 1.0029-1.5855 2.0058-2.4023 3.0391-0.70125 0.90363-1.4025 1.8073-2.125 2.7383-0.61875 0.64324-1.2375 1.2865-1.875 1.9492h-3c-1.0109-2.3918-2.0088-4.7876-3-7.1875-0.28617-0.67354-0.57234-1.3471-0.86719-2.041-2.8884-7.0491-2.8884-7.0491-2.1328-10.771 1.9766-2.6484 1.9766-2.6484 4.625-5.375 3.0589-3.1557 5.8916-6.2834 8.4375-9.875 1.3828-1.6602 1.3828-1.6602 2.9375-2.75 2.3702-0.065597 4.4323 0.31147 6.7539 0.77734 4.0615 0.40262 6.0584-1.3547 9.2461-3.7773 3.0689-3.5803 3.5659-7.2761 4.1797-11.816-0.23182-2.8171-1.348-4.0909-3.1797-6.1836 0.75926-0.89203 1.5185-1.7841 2.3008-2.7031 1.004-1.1822 2.0079-2.3645 3.0117-3.5469 0.49951-0.58652 0.99902-1.173 1.5137-1.7773 0.48662-0.57363 0.97324-1.1473 1.4746-1.7383 0.44513-0.52368 0.89026-1.0474 1.3489-1.5869 1.4367-1.6751 1.4367-1.6751 2.6863-3.8389 1.6641-1.8086 1.6641-1.8086 4.116-2.1709z" fill="#030303"/>
<path transform="translate(225,239)" d="m0 0c3.6024 0.44639 5.585 2.0637 8.25 4.4375 0.70641 0.61746 1.4128 1.2349 2.1406 1.8711 1.6094 1.6914 1.6094 1.6914 1.6094 3.6914-1.5729 1.4144-3.2114 2.756-4.875 4.0625-3.8134 3.0478-7.5231 6.1425-11.125 9.4375-4.2999 3.9189-8.7592 7.5917-13.281 11.25-3.4872 2.886-6.8163 5.927-10.16 8.9766-3.6382 3.2328-7.4164 6.2816-11.211 9.3281-2.321 1.7755-2.321 1.7755-3.6836 3.6914-2.7846 2.0983-6.0161 1.5629-9.3516 1.4414-0.70189-0.013535-1.4038-0.02707-2.127-0.041016-1.7288-0.035283-3.4573-0.089089-5.1855-0.14648 0.39832-0.4473 0.79664-0.89461 1.207-1.3555 5.7228-6.1591 5.7228-6.1591 7.9805-13.973 1.0358-4.6812 3.2554-6.3019 7-8.9219 1.2803-0.94869 2.5603-1.8979 3.8398-2.8477 0.65855-0.4784 1.3171-0.95681 1.9956-1.4497 3.1358-2.304 6.1774-4.724 9.2271-7.1401 1.1561-0.90638 2.3124-1.8126 3.4688-2.7188 3.8411-3.0225 7.6226-6.1175 11.391-9.2305 1.8906-1.3633 1.8906-1.3633 3.8906-1.3633v-2c1.7148-1.4727 1.7148-1.4727 3.9375-3.0625 2.6426-1.8366 2.6426-1.8366 5.0625-3.9375z" fill="#040404"/>
<path transform="translate(140,282)" d="m0 0c-0.31128 1.5836-0.62407 3.1668-0.9375 4.75-0.17402 0.88172-0.34805 1.7634-0.52734 2.6719-0.45884 2.2105-0.96852 4.3932-1.5352 6.5781-1.1692-0.023203-2.3384-0.046406-3.543-0.070312-1.5482-0.018766-3.0963-0.036965-4.6445-0.054688-1.1534-0.025137-1.1534-0.025137-2.3301-0.050781-4.2406-0.0364-7.6952 0.021823-11.482 2.1758-2.2834 3.4251-2.0686 5.2603-1.9709 9.2585 0.14199 10.312 0.14199 10.312-3.2556 14.46-2.8379 1.9701-5.7558 3.6043-8.7734 5.2812-1.4078 1.32-2.7863 2.6724-4.125 4.0625-2.2546 2.0679-3.2548 2.8931-6.332 3.1133-2.4805-0.30078-2.4805-0.30078-4.7578-0.80859-0.88365-0.18176-0.88365-0.18176-1.7852-0.36719l-1 1 0.3125 3.3125-0.3125 3.6875c-3 2.4375-3 2.4375-6 4-2.0455-1.6842-2.9351-2.7969-3.75-5.3477-0.30021-3.2601-0.22274-5.5064 0.75-8.6523 4.3112-4.5656 9.5809-7.828 14.859-11.181 7.7476-4.7232 7.7476-4.7232 12.188-12.28 0.25748-2.4152 0.4594-4.837 0.60156-7.2617 0.54102-5.0435 2.6084-7.967 6.3516-11.277 9.6817-7.2011 20.355-7.3286 32-7z" fill="#070707"/>
<path transform="translate(313,170)" d="m0 0c3.1612 1.3698 3.9927 1.9891 6 5v3c-1.9844 1.875-1.9844 1.875-4.75 4-4.2484 3.3552-8.2968 6.8033-12.25 10.5-4.5279 4.2107-9.2028 8.1738-14.016 12.055-3.5678 2.9234-7.0625 5.9234-10.547 8.9453-0.63889 0.55389-1.2778 1.1078-1.936 1.6785-4.5542 3.9637-9.0314 8.0005-13.451 12.115-2.0508 1.707-2.0508 1.707-6.0508 3.707l-9-8c6.7658-7.2169 14.911-12.942 22.749-18.927 5.2596-4.0375 10.398-8.2194 15.519-12.431 3.8464-3.1528 7.757-6.1884 11.748-9.1555 3.2033-2.4002 6.3424-4.8807 9.4836-7.3613 0.63164-0.49758 1.2633-0.99516 1.9141-1.5078 1.5293-1.2049 3.0577-2.4109 4.5859-3.6172z" fill="#050505"/>
<path transform="translate(302,157)" d="m0 0 5 4c-0.28981 3.0499-0.97721 3.9791-3.2734 6.0859-1.5353 1.1331-1.5353 1.1331-3.1016 2.2891-0.56872 0.42426-1.1374 0.84853-1.7234 1.2856-1.9595 1.4572-3.9303 2.8983-5.9016 4.3394-1.5096 1.1139-3.0187 2.2285-4.5273 3.3438-3.2206 2.3783-6.445 4.7513-9.6719 7.1211-8.633 6.3476-17.254 12.722-25.676 19.348-1.3742 1.0635-2.7492 2.126-4.125 3.1875-0.85336 0.67547-1.7067 1.3509-2.5859 2.0469-0.87914 0.66516-1.7583 1.3303-2.6641 2.0156-0.78891 0.60973-1.5778 1.2195-2.3906 1.8477-2.3594 1.0898-2.3594 1.0898-5.0117 0.4375-2.8871-1.6573-4.4334-3.6535-6.3477-6.3477 3.6533-2.9767 7.4069-5.7759 11.25-8.5 0.59845-0.42579 1.1969-0.85159 1.8135-1.2903 1.9773-1.4054 3.9566-2.808 5.9365-4.2097 1.0635-0.75289 1.0635-0.75289 2.1484-1.521 7.4316-5.258 14.874-10.5 22.34-15.709 1.9421-1.3683 3.8759-2.746 5.8047-4.1328 7.4715-5.371 15.01-10.59 22.707-15.637z" fill="#060606"/>
<path transform="translate(350,296)" d="m0 0 1 2c-2.1469 2.6239-4.2938 5.2478-6.4414 7.8711-1.5941 1.9481-3.1849 3.8988-4.7734 5.8516-1.4567 1.7886-2.9177 3.5737-4.3828 5.3555-1.2726 1.5478-2.5438 3.0967-3.8042 4.6543-1.4615 1.8049-2.935 3.5993-4.4106 5.3926-0.45617 0.56896-0.91233 1.1379-1.3823 1.7241-1.9046 2.2949-3.2966 3.9611-6.1294 5.0181-0.55301 0.043828-1.106 0.087656-1.6758 0.13281 1.6519-3.9173 4.3044-6.8907 7.0625-10.062 0.99679-1.1622 1.9929-2.3249 2.9883-3.4883 0.49709-0.57959 0.99419-1.1592 1.5063-1.7563 5.5375-6.497 10.872-13.14 15.935-20.013 1.5078-1.6797 1.5078-1.6797 4.5078-2.6797z" fill="#E2E2E2"/>
<path transform="translate(163,278)" d="m0 0c1.3695 2.7391 1.1262 4.9709 1 8l-1 2c-6.1317 1.4762-6.1317 1.4762-8.9375-0.0625-1.5381-2.8047-1.4556-4.7926-1.0625-7.9375 2.3455-4.2772 5.7908-3.0133 10-2z" fill="#F7F7F7"/>
<path transform="translate(364,279)" d="m0 0 1 3c-1.5821 1.7512-3.1656 3.5009-4.75 5.25-0.88172 0.97453-1.7634 1.9491-2.6719 2.9531-6.1265 6.6463-6.1265 6.6463-9.5781 7.7969 1.5414-3.5692 3.6948-6.0822 6.3125-8.9375 0.79922-0.8727 1.5984-1.7454 2.4219-2.6445 2.3719-2.5314 4.7731-5.0058 7.2656-7.418z" fill="#F3F3F3"/>
<path transform="translate(350,296)" d="m0 0 1 2c-1.2407 1.6321-2.4929 3.2555-3.75 4.875-0.69609 0.90492-1.3922 1.8098-2.1094 2.7422-2.0322 2.2622-3.3649 3.2749-6.1406 4.3828l-2 1c1.5514-3.4484 3.5915-6.2299 5.9375-9.1875 0.68965-0.88043 1.3793-1.7609 2.0898-2.668 1.9727-2.1445 1.9727-2.1445 4.9727-3.1445z" fill="#E2E2E2"/>
<path transform="translate(330,295)" d="m0 0c2.2174 3.3261 2.3276 5.02 1.75 8.9258-1.3616 3.7657-4.4013 6.0325-7.75 8.0742h-2l-1-3c0.94875-0.39188 1.8975-0.78375 2.875-1.1875 3.2112-1.5112 3.2112-1.5112 4.4375-4.125 0.73766-2.8836 1.2762-5.74 1.6875-8.6875z" fill="#DFDFDF"/>
<path transform="translate(329,321)" d="m0 0 1 3c-1.2389 1.4885-2.4916 2.9655-3.75 4.4375-1.0441 1.2356-1.0441 1.2356-2.1094 2.4961-2.1541 2.0794-3.2237 2.7051-6.1406 3.0664 2.2787-5.3861 6.1553-9.7702 11-13z" fill="#E9E9E9"/>
<path transform="translate(350,296)" d="m0 0 1 2c-2.7552 2.9593-5.4663 5.0368-9 7 1.7078-3.9849 4.0719-7.0359 8-9z" fill="#DADADA"/>
<path transform="translate(330,295)" d="m0 0c2.7864 4.1796 1.7956 6.1467 1 11h-3l2-11z" fill="#D0D0D0"/>
<path transform="translate(355,290)" d="m0 0c0 3 0 3-1.8125 5.125-2.1875 1.875-2.1875 1.875-5.1875 2.875 1.491-3.7952 3.757-5.6104 7-8z" fill="#EAEAEA"/>
</svg>
